<mxfile host="Electron" agent="Mozilla/5.0 (Windows NT 10.0; Win64; x64) AppleWebKit/537.36 (KHTML, like Gecko) draw.io/24.7.8 Chrome/128.0.6613.36 Electron/32.0.1 Safari/537.36" version="24.7.8">
  <diagram name="Страница — 1" id="KjR54cfUh2h--IEu27Yo">
    <mxGraphModel dx="581" dy="392" grid="1" gridSize="10" guides="1" tooltips="1" connect="1" arrows="1" fold="1" page="1" pageScale="1" pageWidth="827" pageHeight="1169" math="0" shadow="0">
      <root>
        <mxCell id="0" />
        <mxCell id="1" parent="0" />
        <mxCell id="Y5O7ZuF1NY75remDHEEP-1" value="Студент" style="swimlane;fontStyle=1;align=center;verticalAlign=top;childLayout=stackLayout;horizontal=1;startSize=26;horizontalStack=0;resizeParent=1;resizeParentMax=0;resizeLast=0;collapsible=1;marginBottom=0;whiteSpace=wrap;html=1;" vertex="1" parent="1">
          <mxGeometry x="330" y="380" width="160" height="78" as="geometry" />
        </mxCell>
        <mxCell id="Y5O7ZuF1NY75remDHEEP-2" value="+ имя" style="text;strokeColor=none;fillColor=none;align=left;verticalAlign=top;spacingLeft=4;spacingRight=4;overflow=hidden;rotatable=0;points=[[0,0.5],[1,0.5]];portConstraint=eastwest;whiteSpace=wrap;html=1;" vertex="1" parent="Y5O7ZuF1NY75remDHEEP-1">
          <mxGeometry y="26" width="160" height="26" as="geometry" />
        </mxCell>
        <mxCell id="Y5O7ZuF1NY75remDHEEP-6" value="+ логин в Telegram" style="text;strokeColor=none;fillColor=none;align=left;verticalAlign=top;spacingLeft=4;spacingRight=4;overflow=hidden;rotatable=0;points=[[0,0.5],[1,0.5]];portConstraint=eastwest;whiteSpace=wrap;html=1;" vertex="1" parent="Y5O7ZuF1NY75remDHEEP-1">
          <mxGeometry y="52" width="160" height="26" as="geometry" />
        </mxCell>
        <mxCell id="Y5O7ZuF1NY75remDHEEP-7" value="Группа" style="swimlane;fontStyle=1;align=center;verticalAlign=top;childLayout=stackLayout;horizontal=1;startSize=26;horizontalStack=0;resizeParent=1;resizeParentMax=0;resizeLast=0;collapsible=1;marginBottom=0;whiteSpace=wrap;html=1;" vertex="1" parent="1">
          <mxGeometry x="590" y="380" width="160" height="52" as="geometry" />
        </mxCell>
        <mxCell id="Y5O7ZuF1NY75remDHEEP-8" value="+ номер" style="text;strokeColor=none;fillColor=none;align=left;verticalAlign=top;spacingLeft=4;spacingRight=4;overflow=hidden;rotatable=0;points=[[0,0.5],[1,0.5]];portConstraint=eastwest;whiteSpace=wrap;html=1;" vertex="1" parent="Y5O7ZuF1NY75remDHEEP-7">
          <mxGeometry y="26" width="160" height="26" as="geometry" />
        </mxCell>
        <mxCell id="Y5O7ZuF1NY75remDHEEP-10" value="" style="endArrow=diamondThin;endFill=1;endSize=10;html=1;rounded=0;entryX=0;entryY=0.5;entryDx=0;entryDy=0;exitX=1.006;exitY=0.328;exitDx=0;exitDy=0;exitPerimeter=0;" edge="1" parent="1" source="Y5O7ZuF1NY75remDHEEP-1" target="Y5O7ZuF1NY75remDHEEP-7">
          <mxGeometry width="160" relative="1" as="geometry">
            <mxPoint x="450" y="490" as="sourcePoint" />
            <mxPoint x="610" y="490" as="targetPoint" />
          </mxGeometry>
        </mxCell>
        <mxCell id="Y5O7ZuF1NY75remDHEEP-11" value="0..1" style="edgeLabel;html=1;align=center;verticalAlign=middle;resizable=0;points=[];" vertex="1" connectable="0" parent="Y5O7ZuF1NY75remDHEEP-10">
          <mxGeometry x="-0.8453" y="1" relative="1" as="geometry">
            <mxPoint x="72" y="-8" as="offset" />
          </mxGeometry>
        </mxCell>
        <mxCell id="Y5O7ZuF1NY75remDHEEP-12" value="*" style="edgeLabel;html=1;align=center;verticalAlign=middle;resizable=0;points=[];" vertex="1" connectable="0" parent="Y5O7ZuF1NY75remDHEEP-10">
          <mxGeometry x="0.6987" y="-1" relative="1" as="geometry">
            <mxPoint x="-75" y="-10" as="offset" />
          </mxGeometry>
        </mxCell>
        <mxCell id="Y5O7ZuF1NY75remDHEEP-13" value="Контоль знаний" style="swimlane;fontStyle=1;align=center;verticalAlign=top;childLayout=stackLayout;horizontal=1;startSize=26;horizontalStack=0;resizeParent=1;resizeParentMax=0;resizeLast=0;collapsible=1;marginBottom=0;whiteSpace=wrap;html=1;" vertex="1" parent="1">
          <mxGeometry x="330" y="500" width="160" height="52" as="geometry" />
        </mxCell>
        <mxCell id="Y5O7ZuF1NY75remDHEEP-14" value="+ сложность" style="text;strokeColor=none;fillColor=none;align=left;verticalAlign=top;spacingLeft=4;spacingRight=4;overflow=hidden;rotatable=0;points=[[0,0.5],[1,0.5]];portConstraint=eastwest;whiteSpace=wrap;html=1;" vertex="1" parent="Y5O7ZuF1NY75remDHEEP-13">
          <mxGeometry y="26" width="160" height="26" as="geometry" />
        </mxCell>
        <mxCell id="Y5O7ZuF1NY75remDHEEP-16" value="" style="endArrow=diamondThin;endFill=1;endSize=10;html=1;rounded=0;entryX=0.498;entryY=-0.047;entryDx=0;entryDy=0;exitX=0.5;exitY=1;exitDx=0;exitDy=0;entryPerimeter=0;" edge="1" parent="1" source="Y5O7ZuF1NY75remDHEEP-1" target="Y5O7ZuF1NY75remDHEEP-13">
          <mxGeometry width="160" relative="1" as="geometry">
            <mxPoint x="500" y="429" as="sourcePoint" />
            <mxPoint x="600" y="429" as="targetPoint" />
          </mxGeometry>
        </mxCell>
        <mxCell id="Y5O7ZuF1NY75remDHEEP-19" value="*" style="edgeLabel;html=1;align=center;verticalAlign=middle;resizable=0;points=[];" vertex="1" connectable="0" parent="1">
          <mxGeometry x="419.99999999999994" y="490" as="geometry" />
        </mxCell>
        <mxCell id="Y5O7ZuF1NY75remDHEEP-20" value="Предметная область" style="swimlane;fontStyle=1;align=center;verticalAlign=top;childLayout=stackLayout;horizontal=1;startSize=26;horizontalStack=0;resizeParent=1;resizeParentMax=0;resizeLast=0;collapsible=1;marginBottom=0;whiteSpace=wrap;html=1;" vertex="1" parent="1">
          <mxGeometry x="330" y="590" width="160" height="52" as="geometry" />
        </mxCell>
        <mxCell id="Y5O7ZuF1NY75remDHEEP-21" value="+ название" style="text;strokeColor=none;fillColor=none;align=left;verticalAlign=top;spacingLeft=4;spacingRight=4;overflow=hidden;rotatable=0;points=[[0,0.5],[1,0.5]];portConstraint=eastwest;whiteSpace=wrap;html=1;" vertex="1" parent="Y5O7ZuF1NY75remDHEEP-20">
          <mxGeometry y="26" width="160" height="26" as="geometry" />
        </mxCell>
        <mxCell id="Y5O7ZuF1NY75remDHEEP-22" value="" style="endArrow=diamondThin;endFill=1;endSize=10;html=1;rounded=0;exitX=0.5;exitY=0;exitDx=0;exitDy=0;" edge="1" parent="1" source="Y5O7ZuF1NY75remDHEEP-20" target="Y5O7ZuF1NY75remDHEEP-13">
          <mxGeometry width="160" relative="1" as="geometry">
            <mxPoint x="420" y="468" as="sourcePoint" />
            <mxPoint x="440" y="570" as="targetPoint" />
          </mxGeometry>
        </mxCell>
        <mxCell id="Y5O7ZuF1NY75remDHEEP-24" value="*" style="edgeLabel;html=1;align=center;verticalAlign=middle;resizable=0;points=[];" vertex="1" connectable="0" parent="Y5O7ZuF1NY75remDHEEP-22">
          <mxGeometry x="0.1472" relative="1" as="geometry">
            <mxPoint x="4" y="-2" as="offset" />
          </mxGeometry>
        </mxCell>
        <mxCell id="Y5O7ZuF1NY75remDHEEP-26" value="Результаты" style="swimlane;fontStyle=1;align=center;verticalAlign=top;childLayout=stackLayout;horizontal=1;startSize=26;horizontalStack=0;resizeParent=1;resizeParentMax=0;resizeLast=0;collapsible=1;marginBottom=0;whiteSpace=wrap;html=1;" vertex="1" parent="1">
          <mxGeometry x="40" y="380" width="210" height="156" as="geometry" />
        </mxCell>
        <mxCell id="Y5O7ZuF1NY75remDHEEP-27" value="+ сложность" style="text;strokeColor=none;fillColor=none;align=left;verticalAlign=top;spacingLeft=4;spacingRight=4;overflow=hidden;rotatable=0;points=[[0,0.5],[1,0.5]];portConstraint=eastwest;whiteSpace=wrap;html=1;" vertex="1" parent="Y5O7ZuF1NY75remDHEEP-26">
          <mxGeometry y="26" width="210" height="26" as="geometry" />
        </mxCell>
        <mxCell id="Y5O7ZuF1NY75remDHEEP-28" value="+ количество зачтённых" style="text;strokeColor=none;fillColor=none;align=left;verticalAlign=top;spacingLeft=4;spacingRight=4;overflow=hidden;rotatable=0;points=[[0,0.5],[1,0.5]];portConstraint=eastwest;whiteSpace=wrap;html=1;" vertex="1" parent="Y5O7ZuF1NY75remDHEEP-26">
          <mxGeometry y="52" width="210" height="26" as="geometry" />
        </mxCell>
        <mxCell id="Y5O7ZuF1NY75remDHEEP-31" value="+ количество незачтённых" style="text;strokeColor=none;fillColor=none;align=left;verticalAlign=top;spacingLeft=4;spacingRight=4;overflow=hidden;rotatable=0;points=[[0,0.5],[1,0.5]];portConstraint=eastwest;whiteSpace=wrap;html=1;" vertex="1" parent="Y5O7ZuF1NY75remDHEEP-26">
          <mxGeometry y="78" width="210" height="26" as="geometry" />
        </mxCell>
        <mxCell id="Y5O7ZuF1NY75remDHEEP-33" value="+ количество ложноположительных" style="text;strokeColor=none;fillColor=none;align=left;verticalAlign=top;spacingLeft=4;spacingRight=4;overflow=hidden;rotatable=0;points=[[0,0.5],[1,0.5]];portConstraint=eastwest;whiteSpace=wrap;html=1;" vertex="1" parent="Y5O7ZuF1NY75remDHEEP-26">
          <mxGeometry y="104" width="210" height="26" as="geometry" />
        </mxCell>
        <mxCell id="Y5O7ZuF1NY75remDHEEP-32" value="+ количество ложноотрицательных" style="text;strokeColor=none;fillColor=none;align=left;verticalAlign=top;spacingLeft=4;spacingRight=4;overflow=hidden;rotatable=0;points=[[0,0.5],[1,0.5]];portConstraint=eastwest;whiteSpace=wrap;html=1;" vertex="1" parent="Y5O7ZuF1NY75remDHEEP-26">
          <mxGeometry y="130" width="210" height="26" as="geometry" />
        </mxCell>
        <mxCell id="Y5O7ZuF1NY75remDHEEP-29" value="" style="endArrow=diamondThin;endFill=1;endSize=10;html=1;rounded=0;entryX=0;entryY=0.5;entryDx=0;entryDy=0;exitX=1;exitY=0.5;exitDx=0;exitDy=0;" edge="1" parent="1" source="Y5O7ZuF1NY75remDHEEP-27" target="Y5O7ZuF1NY75remDHEEP-2">
          <mxGeometry width="160" relative="1" as="geometry">
            <mxPoint x="420" y="468" as="sourcePoint" />
            <mxPoint x="420" y="508" as="targetPoint" />
          </mxGeometry>
        </mxCell>
        <mxCell id="Y5O7ZuF1NY75remDHEEP-30" value="*" style="edgeLabel;html=1;align=center;verticalAlign=middle;resizable=0;points=[];" vertex="1" connectable="0" parent="Y5O7ZuF1NY75remDHEEP-29">
          <mxGeometry x="-0.4827" relative="1" as="geometry">
            <mxPoint x="-11" y="-13" as="offset" />
          </mxGeometry>
        </mxCell>
        <mxCell id="Y5O7ZuF1NY75remDHEEP-34" value="Вопрос" style="swimlane;fontStyle=1;align=center;verticalAlign=top;childLayout=stackLayout;horizontal=1;startSize=26;horizontalStack=0;resizeParent=1;resizeParentMax=0;resizeLast=0;collapsible=1;marginBottom=0;whiteSpace=wrap;html=1;" vertex="1" parent="1">
          <mxGeometry x="590" y="462" width="160" height="234" as="geometry" />
        </mxCell>
        <mxCell id="Y5O7ZuF1NY75remDHEEP-35" value="+ номер" style="text;strokeColor=none;fillColor=none;align=left;verticalAlign=top;spacingLeft=4;spacingRight=4;overflow=hidden;rotatable=0;points=[[0,0.5],[1,0.5]];portConstraint=eastwest;whiteSpace=wrap;html=1;" vertex="1" parent="Y5O7ZuF1NY75remDHEEP-34">
          <mxGeometry y="26" width="160" height="26" as="geometry" />
        </mxCell>
        <mxCell id="Y5O7ZuF1NY75remDHEEP-42" value="+ понятие1" style="text;strokeColor=none;fillColor=none;align=left;verticalAlign=top;spacingLeft=4;spacingRight=4;overflow=hidden;rotatable=0;points=[[0,0.5],[1,0.5]];portConstraint=eastwest;whiteSpace=wrap;html=1;" vertex="1" parent="Y5O7ZuF1NY75remDHEEP-34">
          <mxGeometry y="52" width="160" height="26" as="geometry" />
        </mxCell>
        <mxCell id="Y5O7ZuF1NY75remDHEEP-41" value="+ понятие2" style="text;strokeColor=none;fillColor=none;align=left;verticalAlign=top;spacingLeft=4;spacingRight=4;overflow=hidden;rotatable=0;points=[[0,0.5],[1,0.5]];portConstraint=eastwest;whiteSpace=wrap;html=1;" vertex="1" parent="Y5O7ZuF1NY75remDHEEP-34">
          <mxGeometry y="78" width="160" height="26" as="geometry" />
        </mxCell>
        <mxCell id="Y5O7ZuF1NY75remDHEEP-40" value="+ ожидаемый ответ" style="text;strokeColor=none;fillColor=none;align=left;verticalAlign=top;spacingLeft=4;spacingRight=4;overflow=hidden;rotatable=0;points=[[0,0.5],[1,0.5]];portConstraint=eastwest;whiteSpace=wrap;html=1;" vertex="1" parent="Y5O7ZuF1NY75remDHEEP-34">
          <mxGeometry y="104" width="160" height="26" as="geometry" />
        </mxCell>
        <mxCell id="Y5O7ZuF1NY75remDHEEP-39" value="+ ответ студента" style="text;strokeColor=none;fillColor=none;align=left;verticalAlign=top;spacingLeft=4;spacingRight=4;overflow=hidden;rotatable=0;points=[[0,0.5],[1,0.5]];portConstraint=eastwest;whiteSpace=wrap;html=1;" vertex="1" parent="Y5O7ZuF1NY75remDHEEP-34">
          <mxGeometry y="130" width="160" height="26" as="geometry" />
        </mxCell>
        <mxCell id="Y5O7ZuF1NY75remDHEEP-38" value="+ время начала" style="text;strokeColor=none;fillColor=none;align=left;verticalAlign=top;spacingLeft=4;spacingRight=4;overflow=hidden;rotatable=0;points=[[0,0.5],[1,0.5]];portConstraint=eastwest;whiteSpace=wrap;html=1;" vertex="1" parent="Y5O7ZuF1NY75remDHEEP-34">
          <mxGeometry y="156" width="160" height="26" as="geometry" />
        </mxCell>
        <mxCell id="Y5O7ZuF1NY75remDHEEP-44" value="+ время окончания" style="text;strokeColor=none;fillColor=none;align=left;verticalAlign=top;spacingLeft=4;spacingRight=4;overflow=hidden;rotatable=0;points=[[0,0.5],[1,0.5]];portConstraint=eastwest;whiteSpace=wrap;html=1;" vertex="1" parent="Y5O7ZuF1NY75remDHEEP-34">
          <mxGeometry y="182" width="160" height="26" as="geometry" />
        </mxCell>
        <mxCell id="Y5O7ZuF1NY75remDHEEP-43" value="+ зачтено" style="text;strokeColor=none;fillColor=none;align=left;verticalAlign=top;spacingLeft=4;spacingRight=4;overflow=hidden;rotatable=0;points=[[0,0.5],[1,0.5]];portConstraint=eastwest;whiteSpace=wrap;html=1;" vertex="1" parent="Y5O7ZuF1NY75remDHEEP-34">
          <mxGeometry y="208" width="160" height="26" as="geometry" />
        </mxCell>
        <mxCell id="Y5O7ZuF1NY75remDHEEP-36" value="" style="endArrow=diamondThin;endFill=1;endSize=10;html=1;rounded=0;entryX=1;entryY=0.5;entryDx=0;entryDy=0;exitX=0;exitY=0.5;exitDx=0;exitDy=0;" edge="1" parent="1" source="Y5O7ZuF1NY75remDHEEP-42" target="Y5O7ZuF1NY75remDHEEP-13">
          <mxGeometry width="160" relative="1" as="geometry">
            <mxPoint x="580" y="540" as="sourcePoint" />
            <mxPoint x="340" y="429" as="targetPoint" />
          </mxGeometry>
        </mxCell>
        <mxCell id="Y5O7ZuF1NY75remDHEEP-37" value="*" style="edgeLabel;html=1;align=center;verticalAlign=middle;resizable=0;points=[];" vertex="1" connectable="0" parent="Y5O7ZuF1NY75remDHEEP-36">
          <mxGeometry x="-0.4827" relative="1" as="geometry">
            <mxPoint x="8" y="-13" as="offset" />
          </mxGeometry>
        </mxCell>
        <mxCell id="Y5O7ZuF1NY75remDHEEP-46" value="&lt;b&gt;Оспаривание&lt;/b&gt;" style="html=1;whiteSpace=wrap;" vertex="1" parent="1">
          <mxGeometry x="615" y="740" width="110" height="50" as="geometry" />
        </mxCell>
        <mxCell id="Y5O7ZuF1NY75remDHEEP-47" value="" style="endArrow=diamondThin;endFill=1;endSize=10;html=1;rounded=0;entryX=0.5;entryY=0;entryDx=0;entryDy=0;exitX=0.502;exitY=1.055;exitDx=0;exitDy=0;exitPerimeter=0;" edge="1" parent="1" source="Y5O7ZuF1NY75remDHEEP-43" target="Y5O7ZuF1NY75remDHEEP-46">
          <mxGeometry width="160" relative="1" as="geometry">
            <mxPoint x="260" y="429" as="sourcePoint" />
            <mxPoint x="340" y="429" as="targetPoint" />
          </mxGeometry>
        </mxCell>
        <mxCell id="Y5O7ZuF1NY75remDHEEP-50" value="&lt;p style=&quot;margin:0px;margin-top:4px;text-align:center;&quot;&gt;«enumeration»&lt;br&gt;&lt;b&gt;Статус оспаривания&lt;/b&gt;&lt;br&gt;&lt;/p&gt;&lt;hr size=&quot;1&quot; style=&quot;border-style:solid;&quot;&gt;&lt;p style=&quot;margin:0px;margin-left:4px;&quot;&gt;+ Необработано&lt;/p&gt;&lt;p style=&quot;margin:0px;margin-left:4px;&quot;&gt;+ Отклонено&lt;/p&gt;&lt;p style=&quot;margin:0px;margin-left:4px;&quot;&gt;+ Оспорено&lt;/p&gt;" style="verticalAlign=top;align=left;overflow=fill;html=1;whiteSpace=wrap;" vertex="1" parent="1">
          <mxGeometry x="334" y="696" width="160" height="94" as="geometry" />
        </mxCell>
        <mxCell id="Y5O7ZuF1NY75remDHEEP-51" value="" style="endArrow=diamondThin;endFill=1;endSize=10;html=1;rounded=0;entryX=0;entryY=0.5;entryDx=0;entryDy=0;exitX=1;exitY=0.75;exitDx=0;exitDy=0;" edge="1" parent="1" source="Y5O7ZuF1NY75remDHEEP-50" target="Y5O7ZuF1NY75remDHEEP-46">
          <mxGeometry width="160" relative="1" as="geometry">
            <mxPoint x="680" y="707" as="sourcePoint" />
            <mxPoint x="680" y="750" as="targetPoint" />
          </mxGeometry>
        </mxCell>
      </root>
    </mxGraphModel>
  </diagram>
</mxfile>
